<svg xmlns="http://www.w3.org/2000/svg" version="1.1" xmlns:xlink="http://www.w3.org/1999/xlink" width="1500" height="1500" viewBox="0 0 1500 1500"><rect width="1500" height="1500" x="0" y="0" id="background" stroke="transparent" fill="#0a0a0a"></rect><svg xml:space="preserve" width="1000" height="1000" data-version="2" data-id="lg_P2kd2ywpxHFhWyBRlr" viewBox="0 0 562 609" x="250" y="250"><rect width="100%" height="100%" fill="transparent"></rect><path fill="#868686" d="M5.48 403.276h17.28q9.01 0 13.15 4.18 4.13 4.19 4.13 12.88v4.56q0 11.55-7.63 14.63v.21q4.24 1.27 5.99 5.19 1.75 3.93 1.75 10.5v13.04q0 3.18.21 5.14.21 1.96 1.06 3.87H29.55q-.64-1.81-.85-3.4-.21-1.59-.21-5.72v-13.57q0-5.09-1.65-7.1-1.64-2.01-5.67-2.01h-4.03v31.8H5.48Zm15.9 31.8q3.5 0 5.25-1.81 1.75-1.8 1.75-6.04v-5.72q0-4.03-1.43-5.83-1.43-1.8-4.51-1.8h-5.3v21.2Z"></path><rect width="35.94" height="74.2" x="-17.97" y="-37.1" fill="none" rx="0" ry="0" transform="translate(23.95 440.88)"></rect><path fill="#868686" d="M48.2 403.276h11.66v74.2H48.2Z"></path><rect width="11.66" height="74.2" x="-5.83" y="-37.1" fill="none" rx="0" ry="0" transform="translate(54.53 440.88)"></rect><path fill="#868686" d="M83.71 478.536q-8.48 0-12.82-4.83-4.35-4.82-4.35-13.83v-4.24h11.02v5.09q0 7.21 6.05 7.21 2.96 0 4.5-1.75t1.54-5.67q0-4.67-2.12-8.22-2.12-3.55-7.85-8.53-7.2-6.36-10.07-11.5-2.86-5.14-2.86-11.61 0-8.8 4.45-13.62 4.46-4.82 12.94-4.82 8.37 0 12.66 4.82 4.3 4.82 4.3 13.83v3.08H90.07v-3.82q0-3.82-1.48-5.57-1.49-1.74-4.35-1.74-5.83 0-5.83 7.1 0 4.03 2.17 7.52 2.18 3.5 7.9 8.48 7.32 6.36 10.07 11.56 2.76 5.19 2.76 12.19 0 9.11-4.51 13.99-4.5 4.88-13.09 4.88"></path><rect width="34.77" height="76.32" x="-17.39" y="-38.16" fill="none" rx="0" ry="0" transform="translate(84.42 440.88)"></rect><path fill="#868686" d="M124.84 478.536q-8.59 0-13.14-4.88-4.56-4.88-4.56-13.78v-39.01q0-8.9 4.56-13.78 4.55-4.87 13.14-4.87t13.14 4.87q4.56 4.88 4.56 13.78v39.01q0 8.9-4.56 13.78-4.55 4.88-13.14 4.88m0-10.6q6.04 0 6.04-7.32v-40.49q0-7.31-6.04-7.31t-6.04 7.31v40.49q0 7.32 6.04 7.32"></path><rect width="35.4" height="76.32" x="-17.7" y="-38.16" fill="none" rx="0" ry="0" transform="translate(125.34 440.88)"></rect><path fill="#868686" d="M149.43 403.276h11.87l-2.86 23.95h-6.25Z"></path><rect width="11.87" height="23.95" x="-5.93" y="-11.97" fill="none" rx="0" ry="0" transform="translate(155.87 415.75)"></rect><path fill="#868686" d="M184.84 478.536q-8.48 0-12.83-4.83-4.35-4.82-4.35-13.83v-4.24h11.03v5.09q0 7.21 6.04 7.21 2.97 0 4.5-1.75 1.54-1.75 1.54-5.67 0-4.67-2.12-8.22-2.12-3.55-7.84-8.53-7.21-6.36-10.07-11.5-2.86-5.14-2.86-11.61 0-8.8 4.45-13.62 4.45-4.82 12.93-4.82 8.37 0 12.67 4.82 4.29 4.82 4.29 13.83v3.08H191.2v-3.82q0-3.82-1.49-5.57-1.48-1.74-4.34-1.74-5.83 0-5.83 7.1 0 4.03 2.17 7.52 2.17 3.5 7.9 8.48 7.31 6.36 10.07 11.56 2.75 5.19 2.75 12.19 0 9.11-4.5 13.99-4.51 4.88-13.09 4.88"></path><rect width="34.77" height="76.32" x="-17.39" y="-38.16" fill="none" rx="0" ry="0" transform="translate(185.54 440.88)"></rect><path fill="#868686" d="M226.07 403.276h16.64l7.42 53.1h.21l7.42-53.1h16.65v74.2h-11.03v-56.18h-.21l-8.48 56.18h-9.75l-8.48-56.18h-.21v56.18h-10.18Z"></path><rect width="48.34" height="74.2" x="-24.17" y="-37.1" fill="none" rx="0" ry="0" transform="translate(250.74 440.88)"></rect><path fill="#868686" d="M283.1 403.276h31.8v10.6h-20.14v19.61h16v10.6h-16v22.79h20.14v10.6h-31.8Z"></path><rect width="31.8" height="74.2" x="-15.9" y="-37.1" fill="none" rx="0" ry="0" transform="translate(299.5 440.88)"></rect><path fill="#868686" d="M321.58 403.276h16.64l7.42 53.1h.21l7.42-53.1h16.64v74.2h-11.02v-56.18h-.21l-8.48 56.18h-9.76l-8.48-56.18h-.21v56.18h-10.17Z"></path><rect width="48.33" height="74.2" x="-24.16" y="-37.1" fill="none" rx="0" ry="0" transform="translate(346.25 440.88)"></rect><path fill="#868686" d="M395.46 478.536q-8.59 0-13.15-4.88-4.55-4.88-4.55-13.78v-39.01q0-8.9 4.55-13.78 4.56-4.87 13.15-4.87 8.58 0 13.14 4.87 4.56 4.88 4.56 13.78v39.01q0 8.9-4.56 13.78-4.56 4.88-13.14 4.88m0-10.6q6.04 0 6.04-7.32v-40.49q0-7.31-6.04-7.31t-6.04 7.31v40.49q0 7.32 6.04 7.32"></path><rect width="35.4" height="76.32" x="-17.7" y="-38.16" fill="none" rx="0" ry="0" transform="translate(395.96 440.88)"></rect><path fill="#868686" d="M421 403.276h17.28q9.01 0 13.15 4.18 4.13 4.19 4.13 12.88v4.56q0 11.55-7.63 14.63v.21q4.24 1.27 5.99 5.19 1.75 3.93 1.75 10.5v13.04q0 3.18.21 5.14.21 1.96 1.06 3.87h-11.87q-.64-1.81-.85-3.4-.21-1.59-.21-5.72v-13.57q0-5.09-1.65-7.1-1.64-2.01-5.67-2.01h-4.03v31.8H421Zm15.9 31.8q3.5 0 5.25-1.81 1.75-1.8 1.75-6.04v-5.72q0-4.03-1.43-5.83-1.43-1.8-4.51-1.8h-5.3v21.2Z"></path><rect width="35.94" height="74.2" x="-17.97" y="-37.1" fill="none" rx="0" ry="0" transform="translate(439.47 440.88)"></rect><path fill="#868686" d="M463.72 403.276h11.66v74.2h-11.66Z"></path><rect width="11.66" height="74.2" x="-5.83" y="-37.1" fill="none" rx="0" ry="0" transform="translate(470.05 440.88)"></rect><path fill="#868686" d="M484.07 403.276h31.8v10.6h-20.14v19.61h16.01v10.6h-16.01v22.79h20.14v10.6h-31.8Z"></path><rect width="31.8" height="74.2" x="-15.9" y="-37.1" fill="none" rx="0" ry="0" transform="translate(500.47 440.88)"></rect><path fill="#868686" d="M537.92 478.536q-8.48 0-12.82-4.83-4.35-4.82-4.35-13.83v-4.24h11.02v5.09q0 7.21 6.05 7.21 2.96 0 4.5-1.75t1.54-5.67q0-4.67-2.12-8.22-2.12-3.55-7.85-8.53-7.2-6.36-10.07-11.5-2.86-5.14-2.86-11.61 0-8.8 4.45-13.62 4.46-4.82 12.94-4.82 8.37 0 12.66 4.82 4.3 4.82 4.3 13.83v3.08h-11.03v-3.82q0-3.82-1.48-5.57-1.49-1.74-4.35-1.74-5.83 0-5.83 7.1 0 4.03 2.17 7.52 2.18 3.5 7.9 8.48 7.32 6.36 10.07 11.56 2.76 5.19 2.76 12.19 0 9.11-4.51 13.99-4.5 4.88-13.09 4.88"></path><rect width="34.77" height="76.32" x="-17.39" y="-38.16" fill="none" rx="0" ry="0" transform="translate(538.63 440.88)"></rect><path fill="#868686" d="M209.63 544.316q-3.52 0-5.33-2.01-1.8-2-1.8-5.74v-1.76h4.57v2.11q0 3 2.51 3 1.23 0 1.87-.73.64-.73.64-2.35 0-1.94-.88-3.41-.88-1.48-3.26-3.55-2.99-2.64-4.18-4.77-1.18-2.13-1.18-4.82 0-3.65 1.84-5.65 1.85-2 5.37-2 3.48 0 5.26 2 1.78 2 1.78 5.74v1.28h-4.57v-1.59q0-1.58-.62-2.31-.62-.72-1.8-.72-2.42 0-2.42 2.94 0 1.68.9 3.13t3.28 3.52q3.03 2.64 4.18 4.79 1.14 2.16 1.14 5.06 0 3.79-1.87 5.81-1.87 2.03-5.43 2.03"></path><rect width="14.43" height="31.68" x="-7.21" y="-15.84" fill="none" rx="0" ry="0" transform="translate(210.22 528.98)"></rect><path fill="#868686" d="M232.02 544.316q-3.52 0-5.37-2.01-1.84-2-1.84-5.74v-23.49h4.84v23.84q0 1.59.63 2.29.64.71 1.83.71t1.83-.71q.63-.7.63-2.29v-23.84h4.67v23.49q0 3.74-1.85 5.74-1.85 2.01-5.37 2.01"></path><rect width="14.43" height="31.24" x="-7.21" y="-15.62" fill="none" rx="0" ry="0" transform="translate(232.53 529.2)"></rect><path fill="#868686" d="M247.95 513.076h7.13q3.61 0 5.41 1.93 1.8 1.94 1.8 5.68v3.03q0 3.74-1.8 5.68-1.8 1.94-5.41 1.94h-2.29v12.54h-4.84Zm7.13 13.86q1.19 0 1.78-.66.59-.66.59-2.25v-3.65q0-1.58-.59-2.24-.59-.66-1.78-.66h-2.29v9.46Z"></path><rect width="14.34" height="30.8" x="-7.17" y="-15.4" fill="none" rx="0" ry="0" transform="translate(255.62 528.98)"></rect><path fill="#868686" d="M270.21 513.076h7.18q3.74 0 5.45 1.73 1.72 1.74 1.72 5.35v1.89q0 4.8-3.17 6.07v.09q1.76.53 2.49 2.16.72 1.63.72 4.35v5.42q0 1.32.09 2.13.09.81.44 1.61h-4.93q-.26-.75-.35-1.41-.09-.66-.09-2.38v-5.63q0-2.11-.68-2.95-.68-.83-2.35-.83h-1.68v13.2h-4.84Zm6.6 13.2q1.46 0 2.18-.75.73-.75.73-2.51v-2.38q0-1.67-.6-2.42-.59-.74-1.87-.74h-2.2v8.8Z"></path><rect width="14.92" height="30.8" x="-7.46" y="-15.4" fill="none" rx="0" ry="0" transform="translate(278.17 528.98)"></rect><path fill="#868686" d="M293.23 513.076h13.2v4.4h-8.36v8.14h6.64v4.4h-6.64v9.46h8.36v4.4h-13.2Z"></path><rect width="13.2" height="30.8" x="-6.6" y="-15.4" fill="none" rx="0" ry="0" transform="translate(300.33 528.98)"></rect><path fill="#868686" d="M314.48 513.076h6.91l3.08 22.04h.08l3.08-22.04h6.91v30.8h-4.57v-23.32h-.09l-3.52 23.32h-4.05l-3.52-23.32h-.09v23.32h-4.22Z"></path><rect width="20.06" height="30.8" x="-10.03" y="-15.4" fill="none" rx="0" ry="0" transform="translate(325.01 528.98)"></rect><path fill="#868686" d="M343.43 513.076h13.2v4.4h-8.36v8.14h6.64v4.4h-6.64v9.46h8.36v4.4h-13.2Z"></path><rect width="13.2" height="30.8" x="-6.6" y="-15.4" fill="none" rx="0" ry="0" transform="translate(350.53 528.98)"></rect><path fill="#868686" d="M159.17 570.746h7.13q3.6 0 5.41 1.94 1.8 1.93 1.8 5.67v3.04q0 3.74-1.8 5.67-1.81 1.94-5.41 1.94h-2.29v12.54h-4.84Zm7.13 13.86q1.18 0 1.78-.66.59-.66.59-2.24v-3.66q0-1.58-.59-2.24-.6-.66-1.78-.66h-2.29v9.46Z"></path><rect width="14.34" height="30.8" x="-7.17" y="-15.4" fill="none" rx="0" ry="0" transform="translate(166.84 586.65)"></rect><path fill="#868686" d="M181.43 570.746h4.84v12.54h5.19v-12.54h4.84v30.8h-4.84v-13.86h-5.19v13.86h-4.84Z"></path><rect width="14.87" height="30.8" x="-7.43" y="-15.4" fill="none" rx="0" ry="0" transform="translate(189.37 586.65)"></rect><path fill="#868686" d="M212.19 601.986q-3.57 0-5.46-2.02-1.89-2.03-1.89-5.72v-16.2q0-3.69 1.89-5.72 1.89-2.02 5.46-2.02 3.56 0 5.45 2.02 1.9 2.03 1.9 5.72v16.2q0 3.69-1.9 5.72-1.89 2.02-5.45 2.02m0-4.4q2.51 0 2.51-3.04v-16.8q0-3.04-2.51-3.04t-2.51 3.04v16.8q0 3.04 2.51 3.04"></path><rect width="14.7" height="31.68" x="-7.35" y="-15.84" fill="none" rx="0" ry="0" transform="translate(212.69 586.65)"></rect><path fill="#868686" d="M231.68 575.146h-5.06v-4.4h14.96v4.4h-5.06v26.4h-4.84Z"></path><rect width="14.96" height="30.8" x="-7.48" y="-15.4" fill="none" rx="0" ry="0" transform="translate(234.6 586.65)"></rect><path fill="#868686" d="M256.01 601.986q-3.56 0-5.45-2.02-1.9-2.03-1.9-5.72v-16.2q0-3.69 1.9-5.72 1.89-2.02 5.45-2.02 3.57 0 5.46 2.02 1.89 2.03 1.89 5.72v16.2q0 3.69-1.89 5.72-1.89 2.02-5.46 2.02m0-4.4q2.51 0 2.51-3.04v-16.8q0-3.04-2.51-3.04t-2.51 3.04v16.8q0 3.04 2.51 3.04"></path><rect width="14.7" height="31.68" x="-7.35" y="-15.84" fill="none" rx="0" ry="0" transform="translate(256.51 586.65)"></rect><path fill="#868686" d="M278.76 601.986q-3.52 0-5.37-2t-1.85-5.74v-16.2q0-3.74 1.85-5.74t5.37-2q3.52 0 5.37 2t1.85 5.74v2.64h-4.58v-2.94q0-3.04-2.51-3.04t-2.51 3.04v16.85q0 2.99 2.51 2.99t2.51-2.99v-6.03h-2.42v-4.4h7v10.08q0 3.74-1.85 5.74t-5.37 2"></path><rect width="14.44" height="31.68" x="-7.22" y="-15.84" fill="none" rx="0" ry="0" transform="translate(279.26 586.65)"></rect><path fill="#868686" d="M294.38 570.746h7.17q3.74 0 5.46 1.74 1.71 1.74 1.71 5.34v1.9q0 4.79-3.16 6.07v.09q1.76.52 2.48 2.15.73 1.63.73 4.36v5.41q0 1.32.09 2.13.08.82.44 1.61h-4.93q-.27-.75-.35-1.41-.09-.66-.09-2.37v-5.64q0-2.11-.68-2.94-.69-.84-2.36-.84h-1.67v13.2h-4.84Zm6.6 13.2q1.45 0 2.18-.75.72-.75.72-2.51v-2.37q0-1.67-.59-2.42t-1.87-.75h-2.2v8.8Z"></path><rect width="14.92" height="30.8" x="-7.46" y="-15.4" fill="none" rx="0" ry="0" transform="translate(302.34 586.65)"></rect><path fill="#868686" d="M321.13 570.746h6.56l5.01 30.8h-4.84l-.88-6.12v.09h-5.5l-.88 6.03h-4.48Zm5.28 20.59-2.15-15.22h-.09l-2.11 15.22Z"></path><rect width="16.58" height="30.8" x="-8.29" y="-15.4" fill="none" rx="0" ry="0" transform="translate(324.91 586.65)"></rect><path fill="#868686" d="M340.32 570.746h7.12q3.61 0 5.42 1.94 1.8 1.93 1.8 5.67v3.04q0 3.74-1.8 5.67-1.81 1.94-5.42 1.94h-2.28v12.54h-4.84Zm7.12 13.86q1.19 0 1.79-.66.59-.66.59-2.24v-3.66q0-1.58-.59-2.24-.6-.66-1.79-.66h-2.28v9.46Z"></path><rect width="14.34" height="30.8" x="-7.17" y="-15.4" fill="none" rx="0" ry="0" transform="translate(347.99 586.65)"></rect><path fill="#868686" d="M362.58 570.746h4.84v12.54h5.19v-12.54h4.84v30.8h-4.84v-13.86h-5.19v13.86h-4.84Z"></path><rect width="14.87" height="30.8" x="-7.43" y="-15.4" fill="none" rx="0" ry="0" transform="translate(370.51 586.65)"></rect><path fill="#868686" d="m390.78 588.436-5.85-17.69h5.15l3.3 11.31h.09l3.3-11.31h4.71l-5.86 17.69v13.11h-4.84Z"></path><rect width="16.55" height="30.8" x="-8.28" y="-15.4" fill="none" rx="0" ry="0" transform="translate(393.7 586.65)"></rect><path fill="#868686" d="M436.901 96.343 280.451 6.012 124 96.343l156.45 90.317z"></path><path fill="#707070" fill-rule="evenodd" d="M280.453 186.644v180.663l156.45-90.331V96.327z"></path><path fill="#f9f9f9" fill-rule="evenodd" d="M280.453 186.644v180.663l-156.451-90.331V96.327z"></path><path fill="#f9f9f9" fill-rule="evenodd" d="m372.396 239.735-91.938 53.085-91.954-53.085V133.564l91.954-53.086 91.938 53.086z"></path><path fill="#707070" fill-rule="evenodd" d="M280.459 189.098V82.928l-91.954 53.085v106.17z"></path><path fill="#868686" fill-rule="evenodd" d="m280.458 186.645 91.938 53.086-91.938 53.085-91.954-53.085z"></path></svg></svg>